<svg version="1.1" id="Layer_1" xmlns="http://www.w3.org/2000/svg" xmlns:xlink="http://www.w3.org/1999/xlink" x="0px" y="0px"
	 width="100%" viewBox="0 0 486 70" enable-background="new 0 0 486 70" xml:space="preserve">
<path fill="#3A3751" opacity="1.000000" stroke="none" 
	d="
M370.000000,71.000000 
	C248.166687,71.000000 126.833344,70.979881 5.500133,71.094368 
	C1.750637,71.097900 0.860729,70.255241 0.898801,66.499023 
	C1.109940,45.667828 1.050285,24.833103 0.934034,4.000420 
	C0.920076,1.499041 1.500828,0.936710 3.999974,0.937788 
	C163.999924,1.006804 323.999908,1.006799 483.999847,0.937819 
	C486.498596,0.936742 487.079620,1.498507 487.065979,4.000249 
	C486.950470,25.166285 486.924072,46.333805 487.086456,67.499222 
	C487.109375,70.485115 486.483795,71.094223 483.499847,71.084091 
	C445.833557,70.956100 408.166718,71.000000 370.000000,71.000000 
z"/>
<path fill="#F9F9FA" opacity="1.000000" stroke="none" 
	d="
M14.425150,24.565151 
	C12.468022,19.741859 10.655285,15.273755 8.918312,10.776390 
	C7.846544,8.001369 7.070477,4.993869 3.063032,4.489033 
	C10.032013,4.489033 17.000994,4.489033 24.321257,4.489033 
	C20.613260,6.584793 22.563744,9.165744 23.654335,11.832753 
	C27.793505,21.955004 31.845516,32.112892 36.251453,43.055534 
	C39.075142,37.144314 41.426884,32.066414 43.930576,27.064573 
	C44.794106,25.339424 44.341354,23.876020 43.703064,22.322094 
	C42.123970,18.477739 40.497444,14.651688 38.992550,10.778429 
	C37.909889,7.991914 37.122715,5.005483 33.153851,4.486933 
	C40.349625,4.486933 47.545399,4.486933 54.741173,4.486933 
	C50.656994,5.730309 52.146446,8.158278 53.230244,10.740812 
	C57.214294,20.234230 61.071594,29.780842 65.436813,40.430199 
	C69.570297,28.510019 73.358078,17.586794 77.125549,6.722124 
	C75.281052,5.224715 72.920128,6.848538 70.513611,4.247656 
	C75.888237,3.438788 80.404015,3.561987 85.372261,4.766727 
	C78.111839,4.969585 78.476456,10.874294 76.971016,15.106487 
	C71.900528,29.361029 67.026550,43.685402 62.040535,57.970192 
	C61.642086,59.111740 61.743671,60.964790 59.939217,60.818516 
	C58.635773,60.712860 58.516598,59.122349 58.096386,58.097900 
	C54.142849,48.459541 50.235710,38.802143 45.905109,28.140715 
	C41.078007,38.583488 36.737339,48.014656 32.347515,57.422882 
	C31.750788,58.701778 31.604742,60.807457 29.917761,60.773918 
	C28.177830,60.739334 28.199062,58.589600 27.668550,57.287338 
	C23.277563,46.508606 18.948990,35.704449 14.425150,24.565151 
z"/>
<path fill="#F8F8F9" opacity="1.000000" stroke="none" 
	d="
M324.057739,58.134880 
	C310.363403,50.722782 304.894867,34.324135 310.902161,19.568470 
	C316.430298,5.989799 331.784302,-0.639774 347.248138,3.874890 
	C361.184357,7.943558 369.311432,22.070982 366.584259,37.360832 
	C365.176666,45.252476 361.763611,51.957096 354.832062,56.266109 
	C351.987640,58.034344 352.764252,59.268349 354.329315,61.195751 
	C359.333496,67.358574 363.789886,67.768692 373.246796,62.517471 
	C372.817108,66.860832 369.819977,68.164062 366.626038,68.776894 
	C360.801575,69.894440 355.994995,67.593147 352.707458,62.925392 
	C350.505981,59.799591 348.416626,59.509666 344.867828,60.332493 
	C337.945404,61.937527 330.970184,61.520916 324.057739,58.134880 
z"/>
<path fill="#FCFCFC" opacity="1.000000" stroke="none" 
	d="
M158.505127,52.625988 
	C158.505188,38.840813 158.529449,25.514368 158.487747,12.188130 
	C158.477676,8.965256 160.013794,4.682338 154.009064,5.609775 
	C154.331787,3.421586 155.552124,3.778477 156.422195,3.775212 
	C164.750839,3.743957 173.080231,3.712717 181.408310,3.794247 
	C188.125549,3.860009 193.434525,6.386422 195.958466,13.031478 
	C198.491592,19.700634 196.785690,26.115545 191.341232,31.140963 
	C190.773056,31.665411 190.173676,32.156059 189.198059,33.000633 
	C197.497360,37.194775 197.082825,44.532009 196.770279,51.763863 
	C196.623688,55.155506 196.467285,58.349121 201.644379,58.402199 
	C201.470016,58.903309 201.295639,59.404415 201.121262,59.905521 
	C195.848282,59.905521 190.566696,60.079922 185.306488,59.820614 
	C183.169968,59.715290 183.892670,57.502380 183.875687,56.151569 
	C183.800278,50.155647 183.738525,44.155640 183.889725,38.162609 
	C183.954224,35.605869 183.179291,34.760170 180.535522,34.657211 
	C171.082840,34.289093 171.087067,34.180023 171.087051,43.476612 
	C171.087051,46.475044 171.202896,49.479256 171.053680,52.470242 
	C170.911560,55.319050 170.880066,57.963036 174.288177,59.419445 
	C167.338531,59.419445 160.388885,59.419445 153.439255,59.419445 
	C156.070282,57.745079 159.726532,57.558987 158.505127,52.625988 
z"/>
<path fill="#F9F9FA" opacity="1.000000" stroke="none" 
	d="
M303.657684,37.310207 
	C299.602112,52.916462 290.551483,59.943325 274.851929,60.002682 
	C268.695129,60.025959 262.537750,60.046043 256.381622,59.979351 
	C254.855988,59.962826 253.136230,60.529957 251.042191,58.604458 
	C258.929443,58.408478 256.927063,53.133247 256.946930,49.006023 
	C257.006256,36.692562 256.908844,24.378164 257.005676,12.065179 
	C257.033478,8.536668 257.707336,4.880630 251.826660,5.591066 
	C252.421371,4.724681 252.649384,4.073995 252.908142,4.061531 
	C262.705078,3.589586 272.615295,2.735733 282.266418,4.403640 
	C297.557953,7.046322 305.056580,18.968517 303.657684,37.310207 
z"/>
<path fill="#F6F6F7" opacity="1.000000" stroke="none" 
	d="
M128.125549,59.369583 
	C113.162598,63.398350 100.944122,60.072346 93.508553,50.188400 
	C86.545685,40.932816 85.989006,25.613668 92.238892,15.249029 
	C98.169716,5.413527 110.303154,0.690780 123.696556,3.004621 
	C134.735779,4.911757 143.152557,13.308825 145.602570,24.859316 
	C148.800659,39.936726 142.246368,53.106941 128.125549,59.369583 
z"/>
<path fill="#FBFBFC" opacity="1.000000" stroke="none" 
	d="
M374.429688,59.955063 
	C371.974243,57.524822 374.257782,57.719711 375.415283,57.834751 
	C378.464325,58.137779 378.947876,56.653854 378.930145,54.010578 
	C378.830902,39.185501 378.575500,24.349373 379.060303,9.539507 
	C379.215302,4.805658 375.263367,6.775965 372.613251,3.912006 
	C379.818939,3.912006 385.775360,3.818388 391.724762,3.981245 
	C393.121582,4.019480 393.578918,5.758291 394.320587,6.824987 
	C400.496552,15.707196 406.627258,24.620930 412.825714,33.487350 
	C413.728851,34.779228 414.238159,36.485123 416.630310,37.328808 
	C416.630310,27.300718 416.625702,17.550951 416.634766,7.801197 
	C416.636292,6.156918 415.572998,6.075454 414.306610,5.959263 
	C412.980560,5.837600 411.275299,6.695688 410.135376,4.187271 
	C415.334412,3.389493 420.207031,3.744192 425.208221,3.927470 
	C425.041412,4.839468 424.970184,5.412390 424.932281,5.410192 
	C418.682831,5.047766 418.881378,8.962438 418.961945,13.563596 
	C419.206757,27.552145 419.097382,41.548065 418.992249,55.540108 
	C418.978851,57.324337 420.212555,60.052746 417.794769,60.742840 
	C415.846069,61.299049 415.052795,58.678024 414.055725,57.248608 
	C404.152252,43.051220 394.315613,28.807243 384.444763,14.587071 
	C383.725037,13.550255 382.885803,12.596416 381.258972,10.536258 
	C381.258972,21.707333 381.258942,31.602392 381.258942,41.497452 
	C381.258942,43.329845 381.245056,45.162373 381.262054,46.994610 
	C381.291351,50.157021 380.525696,53.633259 381.592621,56.399685 
	C382.841919,59.639050 387.163208,56.448734 389.640320,59.991592 
	C384.723145,59.991592 379.805939,59.991592 374.429688,59.955063 
z"/>
<path fill="#F9F9F9" opacity="1.000000" stroke="none" 
	d="
M484.875580,58.412403 
	C484.767517,60.523712 483.343750,59.971272 482.318146,59.979713 
	C475.927612,60.032349 469.536438,60.006256 463.083527,60.006256 
	C463.202454,58.985840 463.221710,58.418892 463.275574,58.415581 
	C468.390961,58.101402 467.771332,55.527607 466.427582,51.786449 
	C463.685760,44.152821 463.907837,44.073051 455.737976,44.073040 
	C454.074371,44.073040 452.410797,44.073040 450.747192,44.073040 
	C440.649384,44.073036 440.763550,44.110416 437.707764,53.444046 
	C436.710785,56.489182 436.471008,58.273495 440.510223,57.831200 
	C441.158447,57.760223 441.872253,58.288612 442.476379,59.084858 
	C437.785431,60.281723 433.171387,60.139378 428.059052,58.957802 
	C435.642548,59.048275 435.197266,52.999741 436.615631,48.741440 
	C441.278961,34.741108 445.702759,20.660984 450.168091,6.768552 
	C448.651642,5.138470 446.265930,7.050578 444.600067,4.000271 
	C451.378571,4.000271 457.641174,3.794348 463.873322,4.139208 
	C465.514282,4.230011 465.488739,6.810323 465.962341,8.337127 
	C470.683594,23.556669 475.409058,38.775406 479.993896,54.036259 
	C480.753265,56.563793 481.855011,58.134556 484.875580,58.412403 
z"/>
<path fill="#F7F7F8" opacity="1.000000" stroke="none" 
	d="
M225.571503,15.027838 
	C225.571594,27.997883 225.744644,40.473587 225.473221,52.939613 
	C225.384323,57.021900 226.761520,58.339603 230.562790,57.776703 
	C231.376404,57.656216 232.223160,57.765854 233.054550,57.758030 
	C236.378983,57.726746 240.224060,58.725826 242.890610,57.384186 
	C245.943253,55.848309 243.386414,51.595997 244.295547,48.675858 
	C244.430618,48.242031 244.863144,47.900806 245.736588,46.763321 
	C247.613785,51.132229 246.800537,55.102158 246.510468,58.950077 
	C246.424423,60.091415 244.991791,60.003765 244.000839,60.002819 
	C232.693497,59.991955 221.386139,59.978275 210.078934,59.930141 
	C209.677673,59.928436 209.277969,59.562084 207.886475,58.879581 
	C214.462769,58.004978 212.887360,53.646313 212.902283,50.090607 
	C212.956024,37.286308 212.892853,24.481520 212.945908,11.677214 
	C212.958405,8.659263 213.617310,5.453236 209.313736,4.236506 
	C216.220062,4.236506 223.126404,4.236506 230.032730,4.236506 
	C223.950485,5.741971 225.713333,10.555861 225.571503,15.027838 
z"/>
<path fill="#3B3851" opacity="1.000000" stroke="none" 
	d="
M323.288422,19.064247 
	C323.288422,18.076982 323.288422,17.578005 323.288422,17.079029 
	C323.288391,7.364598 324.507996,6.013391 334.390869,5.090261 
	C336.370209,4.905378 338.384735,4.915729 340.372070,5.028958 
	C350.661774,5.615223 352.067749,7.118557 352.067719,17.322165 
	C352.067719,28.465975 352.101624,39.610008 352.027985,50.753330 
	C352.017853,52.283905 352.785492,54.082077 350.938385,55.543629 
	C349.385345,53.601788 347.972900,51.594860 346.319366,49.811398 
	C340.225647,43.238747 330.707947,44.958782 327.216034,53.177078 
	C326.762177,54.245243 327.312561,56.312164 325.231415,55.978878 
	C322.986084,55.619297 323.293457,53.631233 323.292419,51.985981 
	C323.285736,41.174839 323.288666,30.363684 323.288422,19.064247 
z"/>
<path fill="#413E57" opacity="1.000000" stroke="none" 
	d="
M330.347107,57.934978 
	C328.712097,52.157700 333.030945,47.572140 338.868591,48.427570 
	C340.529938,48.671021 342.144989,49.212002 343.337952,50.446117 
	C345.142120,52.312519 348.135284,54.254097 347.477692,56.698769 
	C346.958862,58.627445 343.392303,58.164833 341.134277,58.574615 
	C337.634979,59.209675 334.182648,58.716679 330.347107,57.934978 
z"/>
<path fill="#3D3A53" opacity="1.000000" stroke="none" 
	d="
M180.773819,5.947047 
	C183.605789,5.728391 183.893890,7.128903 183.874725,9.050662 
	C183.808365,15.699883 183.773087,22.351540 183.891418,28.999325 
	C183.932693,31.318521 183.205429,32.116344 180.815201,32.280010 
	C171.072845,32.947128 171.078827,33.034618 171.078857,23.304819 
	C171.078873,18.982393 171.299454,14.645070 171.008804,10.342278 
	C170.778580,6.933831 171.693298,5.375105 175.322510,5.900496 
	C176.950974,6.136245 178.641693,5.942069 180.773819,5.947047 
z"/>
<path fill="#38354F" opacity="1.000000" stroke="none" 
	d="
M285.222473,7.557580 
	C289.154694,8.410848 290.201141,10.459774 290.124634,14.097781 
	C289.872772,26.077770 289.908966,38.068390 290.110504,50.050285 
	C290.164246,53.245598 289.136353,54.953762 286.177094,55.917656 
	C281.680542,57.382286 277.082611,57.731899 272.401306,57.792358 
	C270.090607,57.822201 269.629669,56.709721 269.634247,54.734180 
	C269.669922,39.419743 269.686615,24.105030 269.616089,8.790833 
	C269.606049,6.606493 270.361298,5.945096 272.500244,5.955172 
	C276.680176,5.974862 280.811035,6.164649 285.222473,7.557580 
z"/>
<path fill="#38354F" opacity="1.000000" stroke="none" 
	d="
M102.851212,16.096060 
	C102.851784,7.192085 103.294876,6.619214 111.689079,5.236064 
	C113.646133,4.913593 115.669426,4.879482 117.660652,4.896706 
	C129.508270,4.999183 131.243988,6.739521 131.243973,18.355179 
	C131.243973,29.343203 131.085358,40.334843 131.335815,51.317150 
	C131.415955,54.831429 130.112686,56.297970 126.957535,57.280338 
	C120.201866,59.383732 113.600189,59.298901 106.866371,57.191437 
	C103.865143,56.252151 102.718155,54.791206 102.773552,51.540524 
	C102.972115,39.889946 102.851273,28.233921 102.851212,16.096060 
z"/>
<path fill="#3E3B54" opacity="1.000000" stroke="none" 
	d="
M462.220398,41.708321 
	C456.314087,41.833443 450.826324,41.760345 445.343567,41.893810 
	C442.570557,41.961315 441.419495,41.619579 442.563629,38.327549 
	C445.990692,28.466766 449.065338,18.483505 452.730469,7.147212 
	C456.052704,19.540516 460.548584,30.196981 462.220398,41.708321 
z"/>
</svg>